# Blender v3.1.2 OBJ File: ''
# www.blender.org
mtllib IS_EUGENE_A_FEMBOY.mtl
o ButtonKeycard.x_Mesh
v -1.382123 0.506118 -3.375714
v -1.382123 0.506119 1.679117
v -1.382123 -0.508362 1.679117
v -1.382123 0.506119 1.679117
v 1.387427 0.506117 1.679116
v 1.387427 -0.508363 1.679116
v -1.382123 0.506119 1.679117
v -1.382123 0.506118 -3.375714
v 1.387427 0.506117 1.679116
v 1.387427 0.506117 1.679116
v 1.387428 0.506116 -3.375714
v -1.382123 -0.508362 -3.375713
v 1.387427 -0.508363 -3.375714
v 1.387428 0.506116 -3.375714
v -1.382123 0.506118 -3.375714
v 1.387428 0.506116 -3.375714
v 1.058082 -0.982779 -0.876662
v 0.002652 -0.982779 -1.184322
v 0.531843 -0.982779 -0.876662
v 1.058082 -0.982779 -1.184321
v 0.002651 -0.982779 1.206768
v -1.057138 -0.982779 -0.876662
v -1.057138 -0.982779 -1.184321
v 1.058082 -0.982779 0.918796
v 1.058082 -0.982779 0.323969
v 1.058082 -0.982779 1.206768
v -1.055730 -0.764382 -1.184321
v 0.002652 -0.982779 -1.184322
v 0.002652 -0.764383 -1.184322
v -1.057138 -0.982779 -2.903365
v 1.058082 -0.982779 -2.903368
v 1.058082 -0.982779 -1.184321
v 1.058082 -0.982779 -2.903368
v 1.061032 -0.764382 -1.184321
v -1.055729 -0.764383 -2.903365
v 1.061034 -0.764382 -2.903368
v -1.057138 -0.982779 -2.903365
v -1.057138 -0.982779 -2.903365
v -1.057138 -0.982779 -1.184321
v 1.061034 -0.764382 -2.903368
v -1.055729 -0.764383 -2.903365
v 1.061032 -0.764382 -1.184321
v -1.055730 -0.764382 -1.184321
v 0.002652 -0.764383 -1.184322
v -1.055729 -0.764383 -2.903365
v -1.057138 -0.982779 -0.275843
v 0.531843 -0.982779 0.918796
v -1.057138 -0.982779 0.918796
v -1.057138 -0.982779 1.206768
v -0.526540 -0.982779 0.918796
v 0.002651 -0.982779 0.918796
v -1.057138 -0.982779 0.323968
v 0.002652 -0.982779 -0.876662
v 1.058082 -0.982779 -0.275843
v -0.526540 -0.982779 -0.876662
v 0.679064 -0.982779 -0.876662
v 0.679065 -0.982779 -0.519817
v 1.058082 -0.982779 -0.519818
v -0.684906 -0.982779 0.918796
v -0.684906 -0.982779 0.554472
v -1.057138 -0.982779 0.554471
v 0.679065 -0.982779 0.918796
v 0.679064 -0.982779 0.554472
v -0.684906 -0.982779 -0.876662
v -0.684906 -0.982779 -0.519817
v 0.675669 -0.982779 0.043754
v -0.683478 -0.982779 0.043754
v -0.683478 -0.982779 -0.006355
v 0.675669 -0.982779 -0.006355
v 1.058082 -0.982779 -0.005054
v -1.057138 -0.982779 0.039707
v 1.058082 -0.982779 0.039707
v -1.057138 -0.982779 -0.005054
v -1.057138 -0.982779 -0.876662
v 1.058082 -0.982779 0.918796
v 1.058082 -0.982779 -0.876662
v -1.057138 -0.982779 0.918796
v -1.057138 -0.982779 -0.519818
v 1.058082 -0.982779 0.554471
v 0.672274 -0.649722 -0.007653
v -0.683478 -0.982779 -0.006355
v -0.682040 -0.649720 -0.007654
v 0.675669 -0.982779 0.043754
v -0.682040 -0.649720 0.047801
v -0.683478 -0.982779 0.043754
v 0.672274 -0.649722 0.047801
v 0.675669 -0.982779 -0.006355
v -1.382123 -0.508362 1.679117
v -1.382123 -0.508362 1.679117
v -1.382123 -0.508362 1.679117
v 1.387427 -0.508363 1.679116
v 1.387427 -0.508363 1.679116
v 1.387427 -0.508363 1.679116
v -1.382123 -0.508362 -3.375713
v -1.382123 -0.508362 -3.375713
v -1.382123 -0.508362 -3.375713
v 1.387427 -0.508363 -3.375714
v 1.387427 -0.508363 -3.375714
v 1.387427 -0.508363 -3.375714
v 1.058082 -0.982779 -0.876662
v 1.058082 -0.982779 -1.184321
v 0.002651 -0.982779 1.206768
v -1.057138 -0.982779 -0.876662
v -1.057138 -0.982779 -1.184321
v 1.058082 -0.982779 0.918796
v 1.058082 -0.982779 1.206768
v 1.058082 -0.982779 1.206768
v -1.055730 -0.764382 -1.184321
v -1.057138 -0.982779 -2.903365
v 1.058082 -0.982779 -2.903368
v 1.058082 -0.982779 -1.184321
v 1.058082 -0.982779 -2.903368
v 1.061032 -0.764382 -1.184321
v 1.061034 -0.764382 -2.903368
v -1.057138 -0.982779 -1.184321
v -1.057138 -0.982779 0.918796
v -1.057138 -0.982779 1.206768
v -1.057138 -0.982779 1.206768
v 0.672274 -0.649722 -0.007653
v 0.672274 -0.649722 -0.007653
v -0.683478 -0.982779 -0.006355
v -0.682040 -0.649720 -0.007654
v -0.682040 -0.649720 -0.007654
v 0.675669 -0.982779 0.043754
v -0.682040 -0.649720 0.047801
v -0.682040 -0.649720 0.047801
v -0.683478 -0.982779 0.043754
v 0.672274 -0.649722 0.047801
v 0.672274 -0.649722 0.047801
v 0.675669 -0.982779 -0.006355
vt 0.273377 0.691381
vt 0.023885 0.275871
vt 0.273377 0.275871
vt 0.687948 0.692574
vt 0.278531 0.948723
vt 0.278531 0.692574
vt 0.023180 0.275871
vt 0.278531 0.275871
vt 0.023180 0.691381
vt 0.023885 0.691381
vt 0.687948 0.948723
vt 0.278531 0.691381
vt 0.687948 0.946770
vt 0.278531 0.946770
vt 0.278531 0.691381
vt 0.357608 0.362134
vt 0.483064 0.362134
vt 0.608520 0.402952
vt 0.357608 0.362134
vt 0.357608 0.402952
vt 0.280230 0.024281
vt 0.357608 0.402952
vt 0.687948 0.691381
vt 0.608520 0.086748
vt 0.280230 0.024281
vt 0.936812 0.024281
vt 0.859434 0.362134
vt 0.936812 0.024281
vt 0.859434 0.402952
vt 0.357608 0.124171
vt 0.357608 0.203491
vt 0.357608 0.086748
vt 0.947956 0.230126
vt 0.947956 0.365264
vt 0.982077 0.365264
vt 0.859434 0.630286
vt 0.357608 0.630286
vt 0.982077 0.500403
vt 0.982077 0.707840
vt 0.982077 0.500403
vt 0.947956 0.500403
vt 0.982077 0.707840
vt 0.947956 0.707840
vt 0.947956 0.978118
vt 0.982077 0.978118
vt 0.982077 0.022689
vt 0.947956 0.230126
vt 0.982077 0.230126
vt 0.947956 0.707840
vt 0.357608 0.630286
vt 0.357608 0.402952
vt 0.859434 0.630286
vt 0.608520 0.402952
vt 0.859434 0.402952
vt 0.947956 0.022689
vt 0.859434 0.282812
vt 0.936812 0.692750
vt 0.859434 0.630286
vt 0.936812 0.692750
vt 0.280230 0.692750
vt 0.357608 0.630286
vt 0.280230 0.692750
vt 0.357608 0.086748
vt 0.483064 0.124171
vt 0.357608 0.086748
vt 0.608520 0.086748
vt 0.859434 0.124171
vt 0.733978 0.124171
vt 0.859434 0.086748
vt 0.859434 0.124171
vt 0.859434 0.086748
vt 0.982077 0.230126
vt 0.859434 0.402952
vt 0.859434 0.362134
vt 0.947956 0.500403
vt 0.608520 0.124171
vt 0.859434 0.203491
vt 0.608520 0.362134
vt 0.357608 0.124171
vt 0.357608 0.282812
vt 0.859434 0.086748
vt 0.733978 0.362134
vt 0.556966 -0.060129
vt 0.606825 -0.107544
vt 0.556966 -0.107544
vt 0.376837 -0.298700
vt 0.327567 -0.250290
vt 0.376837 -0.250290
vt 0.556966 -0.298700
vt 0.556966 -0.250290
vt 0.376837 -0.060129
vt 0.376837 -0.107544
vt 0.377025 -0.182428
vt 0.556518 -0.182428
vt 0.556518 -0.175770
vt 0.377025 -0.175770
vt 0.606825 -0.175943
vt 0.327567 -0.181891
vt 0.606825 -0.181891
vt 0.327567 -0.175943
vt 0.327567 -0.060129
vt 0.606825 -0.298700
vt 0.606825 -0.060129
vt 0.327567 -0.298700
vt 0.327567 -0.107544
vt 0.606825 -0.250290
vt 0.263233 -0.593595
vt 0.032749 -0.593595
vt 0.032504 -0.364739
vt 0.263811 -0.364739
vt 0.032504 -0.364739
vt 0.032749 -0.593595
vt 0.263233 -0.593595
vt 0.263811 -0.364739
vt 0.263811 -0.364739
vt 0.263233 -0.593595
vt 0.263811 -0.364739
vt 0.032504 -0.364739
vt 0.032504 -0.364739
vt 0.032749 -0.593595
vt 0.032749 -0.593595
vt 0.032749 -0.593595
vt 0.032749 -0.593595
vt 0.263233 -0.593595
vt 0.263233 -0.593595
vt 0.263233 -0.593595
vn -1.0000 0.0000 0.0000
vn 0.0000 0.0000 1.0000
vn 1.0000 0.0000 0.0000
vn -0.0000 -0.0000 -1.0000
vn 0.0000 -1.0000 -0.0000
vn 0.8215 -0.5703 0.0000
vn -0.0000 -0.7056 0.7086
vn -0.8250 -0.5651 0.0000
vn -0.9999 0.0135 -0.0000
vn 1.0000 -0.0065 0.0000
vn 1.0000 -0.0064 0.0000
vn -0.0000 -0.7056 -0.7087
vn -0.0000 0.0039 1.0000
vn 0.0000 0.0122 -0.9999
vn -0.9999 -0.0102 0.0000
vn 1.0000 -0.0043 0.0000
usemtl MatD3D01
s 1
f 1/1/1 90/2/1 2/3/1
f 4/4/2 93/5/2 5/6/2
f 10/7/3 92/8/3 11/9/3
f 96/10/1 90/2/1 1/1/1
f 89/11/2 93/5/2 4/4/2
f 99/12/3 11/9/3 92/8/3
f 15/13/4 16/14/4 98/15/4
f 100/16/5 19/17/5 18/18/5
f 17/19/6 20/20/6 6/21/6
f 101/22/5 100/16/5 18/18/5
f 98/15/4 95/23/4 15/13/4
f 102/24/7 91/25/7 88/26/7
f 103/27/8 3/28/8 104/29/8
f 105/30/6 25/31/6 6/21/6
f 107/32/7 91/25/7 102/24/7
f 27/33/4 29/34/4 28/35/4
f 109/36/8 104/29/8 3/28/8
f 31/37/6 6/21/6 20/20/6
f 29/34/4 32/38/4 28/35/4
f 33/39/9 111/40/9 113/41/9
f 112/42/2 114/43/2 35/44/2
f 37/45/2 112/42/2 35/44/2
f 38/46/10 108/47/11 115/48/11
f 36/49/9 33/39/9 113/41/9
f 40/50/5 42/51/5 41/52/5
f 41/52/5 44/53/5 43/54/5
f 45/55/10 108/47/11 38/46/10
f 46/56/8 3/28/8 103/27/8
f 109/36/8 3/28/8 94/57/8
f 30/58/12 12/59/12 97/60/12
f 110/61/12 30/58/12 97/60/12
f 31/37/6 13/62/6 6/21/6
f 105/30/6 6/21/6 106/63/6
f 47/64/5 26/65/5 21/66/5
f 116/67/5 50/68/5 117/69/5
f 48/70/8 118/71/8 3/28/8
f 39/72/4 27/33/4 28/35/4
f 23/73/5 18/18/5 22/74/5
f 34/75/4 32/38/4 29/34/4
f 42/51/5 44/53/5 41/52/5
f 51/76/5 21/66/5 50/68/5
f 52/77/8 3/28/8 46/56/8
f 53/78/5 18/18/5 19/17/5
f 24/79/5 26/65/5 47/64/5
f 17/19/6 6/21/6 54/80/6
f 117/69/5 50/68/5 21/66/5
f 49/81/7 102/24/7 88/26/7
f 22/74/5 18/18/5 55/82/5
f 48/70/8 3/28/8 52/77/8
f 54/80/6 6/21/6 25/31/6
f 55/82/5 18/18/5 53/78/5
f 47/64/5 21/66/5 51/76/5
f 56/83/5 58/84/5 57/85/5
f 59/86/5 61/87/5 60/88/5
f 62/89/5 59/86/5 63/90/5
f 64/91/5 56/83/5 65/92/5
f 63/90/5 67/93/5 66/94/5
f 65/92/5 69/95/5 68/96/5
f 58/84/5 70/97/5 69/95/5
f 58/84/5 69/95/5 57/85/5
f 61/87/5 71/98/5 67/93/5
f 61/87/5 67/93/5 60/88/5
f 69/95/5 72/99/5 66/94/5
f 67/93/5 73/100/5 68/96/5
f 74/101/5 64/91/5 65/92/5
f 75/102/5 62/89/5 63/90/5
f 76/103/5 58/84/5 56/83/5
f 77/104/5 61/87/5 59/86/5
f 78/105/5 74/101/5 65/92/5
f 73/100/5 65/92/5 68/96/5
f 79/106/5 75/102/5 63/90/5
f 72/99/5 63/90/5 66/94/5
f 79/106/5 63/90/5 72/99/5
f 78/105/5 65/92/5 73/100/5
f 63/90/5 59/86/5 60/88/5
f 63/90/5 60/88/5 67/93/5
f 65/92/5 56/83/5 57/85/5
f 65/92/5 57/85/5 69/95/5
f 73/100/5 67/93/5 71/98/5
f 72/99/5 69/95/5 70/97/5
f 120/107/13 123/108/13 121/109/13
f 124/110/14 127/111/14 126/112/14
f 124/110/14 126/112/14 129/113/14
f 87/114/15 83/115/15 128/116/15
f 130/117/13 120/107/13 121/109/13
f 85/118/16 81/119/16 122/120/16
f 125/121/16 85/118/16 122/120/16
f 84/122/5 82/123/5 86/124/5
f 119/125/15 87/114/15 128/116/15
f 80/126/5 86/124/5 82/123/5
